# xmcd CD database file
#
# Track frame offsets:
#	150
#	13814
#	32752
#	46165
#	60874
#	74978
#	91899
#	105614
#	121674
#	134589
#	149321
#	172020
#	186286
#	200230
#	213696
#	226299
#	240730
#	255151
#	269324
#	284790
#	306391
#	319009
#
# Disc length: 4437 seconds
#
# Revision: 0
# Processed by: cddbd v1.5.2PL0 Copyright (c) Steve Scherf et al.
# Submitted via: CDex 1.70beta2
#
DISCID=53115316
DTITLE=Giovanni - Live From Las Vegas
DYEAR=2003
DGENRE=New Age
TTITLE0=Gypsie Dance
TTITLE1=Children of Sarajevo
TTITLE2=Theme From "Somewhere in Time"
TTITLE3=Joy
TTITLE4=Tequila
TTITLE5=A Whiter Sade of Pale
TTITLE6=Destiny
TTITLE7=Monte Carlo
TTITLE8=For You Matthew
TTITLE9=Voctory
TTITLE10=Peacefully
TTITLE11=Puerto De Tierra
TTITLE12=Lysistrata
TTITLE13=Amor
TTITLE14=Summertime
TTITLE15=Garden of Angels
TTITLE16=Requiem
TTITLE17=Boogie Woogie
TTITLE18=Wind Beheath My Wings
TTITLE19=Always
TTITLE20=Death Theme From "The Untouchables"
TTITLE21=Czardas
EXTD=YEAR: 2003
EXTT0=
EXTT1=
EXTT2=
EXTT3=
EXTT4=
EXTT5=
EXTT6=
EXTT7=
EXTT8=
EXTT9=
EXTT10=
EXTT11=
EXTT12=
EXTT13=
EXTT14=
EXTT15=
EXTT16=
EXTT17=
EXTT18=
EXTT19=
EXTT20=
EXTT21=
PLAYORDER=
